<svg xmlns="http://www.w3.org/2000/svg" xmlns:xlink="http://www.w3.org/1999/xlink" viewBox="0 0 160 20" height="75.591" width="604.724" xmlns:v="https://vecta.io/nano"><use xlink:href="#B"/><use xlink:href="#C"/><use xlink:href="#D"/><use xlink:href="#E"/><use xlink:href="#F"/><use xlink:href="#G"/><use xlink:href="#H"/><use xlink:href="#I"/><use xlink:href="#J"/><use xlink:href="#E" x="49.753"/><use xlink:href="#K"/><use xlink:href="#L"/><use xlink:href="#M"/><use xlink:href="#N"/><use xlink:href="#O"/><use xlink:href="#P"/><use xlink:href="#Q"/><use xlink:href="#E" x="116.09"/><use xlink:href="#R"/><use xlink:href="#B"/><use xlink:href="#C"/><use xlink:href="#D"/><use xlink:href="#E"/><use xlink:href="#F"/><use xlink:href="#G"/><use xlink:href="#H"/><use xlink:href="#I"/><use xlink:href="#J"/><use xlink:href="#E" x="49.753"/><use xlink:href="#K"/><use xlink:href="#L"/><use xlink:href="#M"/><use xlink:href="#N"/><use xlink:href="#O"/><use xlink:href="#P"/><use xlink:href="#Q"/><use xlink:href="#E" x="116.09"/><use xlink:href="#R"/><defs ><path id="B" d="M8.025 13.6h-.719L3.091 6.635v6.399h1.037q.373 0 .373.276 0 .29-.373.29H2.054q-.373 0-.373-.29 0-.276.373-.276h.47V6.386h-.746q-.373 0-.373-.29 0-.276.373-.276h1.465l4.215 6.965V6.386H6.435q-.387 0-.387-.29 0-.276.387-.276h2.059q.373 0 .373.276 0 .29-.373.29h-.47z"/><path id="C" d="M11.673 9.841v3.192h4.34v-1.645q0-.373.29-.373.276 0 .276.373V13.6H10.36q-.373 0-.373-.29 0-.276.373-.276h.746V6.386h-.746q-.373 0-.373-.29 0-.276.373-.276h5.929V7.74q0 .373-.29.373-.276 0-.276-.373V6.386h-4.049v2.888h2.004v-.622q0-.373.29-.373.276 0 .276.373v1.81q0 .373-.276.373-.29 0-.29-.373v-.622z"/><path id="D" d="M22.121 13.034h1.451q.373 0 .373.276 0 .29-.373.29h-3.469q-.373 0-.373-.29 0-.276.373-.276h1.451V6.386h-2.308v1.009q0 .373-.29.373-.276 0-.276-.373V5.819h6.302v1.575q0 .373-.276.373-.124 0-.207-.097-.083-.111-.083-.276V6.386h-2.294z"/><path id="E" d="M30.123 5.64q1.465 0 2.446 1.202.995 1.189.995 2.944 0 1.672-1.009 2.861-1.009 1.175-2.432 1.175-1.437 0-2.446-1.189-.995-1.189-.995-2.902 0-1.714.995-2.902 1.009-1.189 2.446-1.189zm0 .567q-1.189 0-2.032 1.037-.843 1.037-.843 2.488 0 1.451.843 2.488.843 1.037 2.032 1.037 1.175 0 2.018-1.023.857-1.037.857-2.46 0-1.493-.843-2.529-.829-1.037-2.032-1.037z"/><path id="F" d="M40.626 6.386v4.934q0 1.023-.774 1.769-.76.732-1.824.732-.663 0-1.258-.276-.594-.29-1.341-.967v-2.059q0-.373.29-.373.276 0 .276.373v1.797q1.037.94 2.045.94.843 0 1.423-.567.594-.567.594-1.368V6.386h-2.197q-.373 0-.373-.29 0-.276.373-.276h4.091q.373 0 .373.276 0 .29-.373.29z"/><path id="G" d="M44.745 13.047q.041 0 .263.097.235.097.622.097.553 0 1.133-.249.58-.263 1.106-.732.525-.47.857-1.271.346-.802.346-1.783 0-.069-.028-.594-.843 1.686-2.294 1.686-.94 0-1.631-.76-.677-.76-.677-1.81 0-1.119.691-1.893.691-.774 1.7-.774 1.23 0 2.004 1.147.774 1.147.774 2.958 0 2.059-1.175 3.358-1.161 1.285-2.861 1.285-.442 0-.774-.152-.318-.138-.318-.332 0-.111.069-.193.083-.083.193-.083zm4.215-5.183q-.29-1.119-.802-1.672-.511-.567-1.341-.567-.774 0-1.299.608-.511.608-.511 1.493 0 .815.511 1.41.525.594 1.244.594.346 0 .677-.166.346-.166.553-.332.207-.18.442-.511.249-.346.304-.456.069-.111.221-.401z"/><path id="H" d="M57.598 5.819q-.041 0-.276-.097-.221-.097-.608-.097-.553 0-1.133.263-.58.249-1.106.719-.525.47-.871 1.271-.332.802-.332 1.783 0 .069.028.594.843-1.686 2.294-1.686.94 0 1.617.76.691.76.691 1.81 0 1.119-.691 1.893-.691.774-1.7.774-1.23 0-2.004-1.147-.774-1.147-.774-2.958 0-2.059 1.161-3.344 1.175-1.299 2.875-1.299.442 0 .76.152.332.138.332.332 0 .111-.083.193-.069.083-.18.083zm-4.215 5.183q.29 1.119.802 1.686.511.553 1.341.553.774 0 1.285-.608.525-.608.525-1.493 0-.815-.525-1.41-.511-.594-1.23-.594-.346 0-.691.166-.332.166-.539.346-.207.166-.456.511-.235.332-.304.442-.055.111-.207.401z"/><path id="I" d="M63.278 14.457q-1.202 0-1.949-1.023-.732-1.037-.732-2.571V8.611q0-1.575.76-2.598.76-1.037 1.935-1.037.94 0 1.562.636.636.636.636 1.589v3.828q.263.041.263.276 0 .29-.373.29h-.456v-.069q-.415.041-.553.041-.802 0-1.341-.498-.539-.498-.539-1.23 0-.843.663-1.41.677-.58 1.769-.58v-.65q0-.719-.456-1.189-.456-.47-1.161-.47-.94 0-1.548.871-.594.871-.594 2.239v2.211q0 1.285.594 2.156.594.871 1.603.871.58 0 .94-.152.373-.138.525-.276.166-.138.249-.138.111 0 .193.083.083.069.083.18 0 .318-.663.594-.65.276-1.41.276zm1.645-3.51V8.404q-.815 0-1.341.401-.525.401-.525 1.023 0 .525.373.857.387.318.981.318.29 0 .511-.055z"/><path id="J" d="M73.477 9.841h-3.731v3.192h.746q.373 0 .373.276 0 .29-.373.29h-1.935q-.387 0-.387-.29 0-.276.387-.276h.622V6.386h-.346q-.373 0-.373-.29 0-.276.373-.276h1.658q.373 0 .373.276 0 .29-.373.29h-.746v2.888h3.731V6.386h-.746q-.373 0-.373-.29 0-.276.373-.276h1.658q.373 0 .373.276 0 .29-.373.29h-.346v6.648h.636q.373 0 .373.276 0 .29-.373.29h-1.949q-.373 0-.373-.29 0-.276.373-.276h.746z"/><path id="K" d="M88.458 13.034h1.451q.373 0 .373.276 0 .29-.373.29H86.44q-.373 0-.373-.29 0-.276.373-.276h1.451V6.386h-2.308v1.009q0 .373-.29.373-.276 0-.276-.373V5.819h6.302v1.575q0 .373-.276.373-.124 0-.207-.097-.083-.111-.083-.276V6.386h-2.294z"/><path id="L" d="M96.819 11.265h-.636l-2.197-4.879h-.111v6.648h1.023q.387 0 .387.276 0 .29-.387.29h-2.059q-.373 0-.373-.29 0-.276.373-.276h.47V6.386h-.346q-.373 0-.373-.29 0-.276.373-.276h1.368l2.17 4.809 2.128-4.809h1.382q.373 0 .373.276 0 .29-.373.29h-.346v6.648h.47q.373 0 .373.276 0 .29-.373.29h-2.059q-.373 0-.373-.29 0-.276.373-.276H99.1V6.386h-.111z"/><path id="M" d="M106.521 11.002h-3.676l-.746 2.032h1.092q.373 0 .373.276 0 .29-.373.29h-2.087q-.373 0-.373-.29 0-.276.373-.276h.428l2.474-6.648h-1.658q-.373 0-.373-.29 0-.276.373-.276h2.819l2.723 7.214h.511q.373 0 .373.276 0 .29-.373.29h-2.156q-.373 0-.373-.29 0-.276.373-.276h1.05zm-.207-.567l-1.548-4.049h-.207l-1.493 4.049z"/><path id="N" d="M113.321 6.386v6.648h1.921q.387 0 .387.276 0 .29-.387.29h-4.409q-.373 0-.373-.29 0-.276.373-.276h1.921V6.386h-1.921q-.373 0-.373-.29 0-.276.373-.276h4.409q.387 0 .387.276 0 .29-.387.29z"/><path id="O" d="M120.327 6.386v6.648h3.773v-2.211q0-.373.29-.373.276 0 .276.373V13.6h-6.233q-.373 0-.373-.29 0-.276.373-.276h1.327V6.386h-1.327q-.373 0-.373-.29 0-.276.373-.276h3.22q.373 0 .373.276 0 .29-.373.29z"/><path id="P" d="M129.559 11.997h.138q.401 0 .677.263.276.249.276.636 0 .387-.276.65-.276.263-.677.263h-.138q-.401 0-.677-.263-.276-.263-.276-.65 0-.387.276-.636.276-.263.677-.263z"/><path id="Q" d="M134.645 9.109q0-.263.069-.636.083-.387.318-.898.235-.511.58-.926.346-.415.967-.705.622-.304 1.41-.304 1.396 0 2.391.954v-.401q0-.373.29-.373.276 0 .276.373V7.74q0 .373-.29.373-.249 0-.276-.332-.042-.636-.76-1.106-.705-.47-1.631-.47-1.147 0-1.962.885-.815.871-.815 2.101v.981q0 1.244.898 2.17.898.912 2.114.912.719 0 1.285-.29.567-.29 1.119-.954.124-.138.249-.138.276 0 .276.263 0 .124-.221.387-.221.263-.58.567-.359.29-.94.511-.58.221-1.189.221-1.41 0-2.501-1.078-1.078-1.092-1.078-2.488z"/><path id="R" d="M154.864 11.265h-.636l-2.197-4.879h-.111v6.648h1.023q.387 0 .387.276 0 .29-.387.29h-2.059q-.373 0-.373-.29 0-.276.373-.276h.47V6.386h-.346q-.373 0-.373-.29 0-.276.373-.276h1.368l2.17 4.809 2.128-4.809h1.382q.373 0 .373.276 0 .29-.373.29h-.345v6.648h.47q.373 0 .373.276 0 .29-.373.29h-2.059q-.373 0-.373-.29 0-.276.373-.276h1.023V6.386h-.111z"/></defs></svg>